<mxfile host="www.draw.io" modified="2019-10-18T19:27:15.818Z" agent="Mozilla/5.0 (Windows NT 10.0; Win64; x64) AppleWebKit/537.36 (KHTML, like Gecko) Chrome/77.0.3865.120 Safari/537.36" etag="psm9kBJy46Bs-nYEuBlY" version="12.1.3" type="github" pages="1">
  <diagram id="3WTgnAl6Fsw7S3e-3any" name="Page-1">
    <mxGraphModel dx="1837" dy="468" grid="1" gridSize="10" guides="1" tooltips="1" connect="1" arrows="1" fold="1" page="1" pageScale="1" pageWidth="827" pageHeight="1169" math="0" shadow="0">
      <root>
        <mxCell id="0"/>
        <mxCell id="1" parent="0"/>
        <mxCell id="F6H5KoVCKVOEPwMbqLrb-2" value="&lt;p style=&quot;margin: 0px ; margin-top: 4px ; text-align: center&quot;&gt;&lt;b&gt;Диспетчер&lt;/b&gt;&lt;/p&gt;&lt;hr size=&quot;1&quot;&gt;&lt;div style=&quot;height: 2px&quot;&gt;&lt;/div&gt;" style="verticalAlign=top;align=left;overflow=fill;fontSize=12;fontFamily=Helvetica;html=1;" parent="1" vertex="1">
          <mxGeometry x="40" y="41" width="140" height="60" as="geometry"/>
        </mxCell>
        <mxCell id="F6H5KoVCKVOEPwMbqLrb-3" value="&lt;p style=&quot;margin: 0px ; margin-top: 4px ; text-align: center&quot;&gt;&lt;b&gt;Машинист&lt;/b&gt;&lt;/p&gt;&lt;p style=&quot;margin: 0px ; margin-top: 4px ; text-align: center&quot;&gt;&lt;b&gt;бульдозера&lt;/b&gt;&lt;/p&gt;&lt;hr size=&quot;1&quot;&gt;&lt;div style=&quot;height: 2px&quot;&gt;&lt;/div&gt;" style="verticalAlign=top;align=left;overflow=fill;fontSize=12;fontFamily=Helvetica;html=1;" parent="1" vertex="1">
          <mxGeometry x="40" y="280" width="140" height="60" as="geometry"/>
        </mxCell>
        <mxCell id="F6H5KoVCKVOEPwMbqLrb-4" value="&lt;p style=&quot;margin: 0px ; margin-top: 4px ; text-align: center&quot;&gt;&lt;b&gt;Бункер&lt;/b&gt;&lt;/p&gt;&lt;hr size=&quot;1&quot;&gt;&lt;div style=&quot;height: 2px&quot;&gt;&lt;/div&gt;" style="verticalAlign=top;align=left;overflow=fill;fontSize=12;fontFamily=Helvetica;html=1;" parent="1" vertex="1">
          <mxGeometry x="320" y="320" width="140" height="60" as="geometry"/>
        </mxCell>
        <mxCell id="F6H5KoVCKVOEPwMbqLrb-5" value="&lt;p style=&quot;margin: 0px ; margin-top: 4px ; text-align: center&quot;&gt;&lt;b&gt;Посторонний предмет&lt;/b&gt;&lt;/p&gt;&lt;hr size=&quot;1&quot;&gt;&lt;div style=&quot;height: 2px&quot;&gt;&lt;/div&gt;" style="verticalAlign=top;align=left;overflow=fill;fontSize=12;fontFamily=Helvetica;html=1;" parent="1" vertex="1">
          <mxGeometry x="320" y="40" width="140" height="60" as="geometry"/>
        </mxCell>
        <mxCell id="F6H5KoVCKVOEPwMbqLrb-6" value="&lt;p style=&quot;margin: 0px ; margin-top: 4px ; text-align: center&quot;&gt;&lt;b&gt;Сыпучий материал&lt;/b&gt;&lt;/p&gt;&lt;hr size=&quot;1&quot;&gt;&lt;div style=&quot;height: 2px&quot;&gt;&lt;/div&gt;" style="verticalAlign=top;align=left;overflow=fill;fontSize=12;fontFamily=Helvetica;html=1;" parent="1" vertex="1">
          <mxGeometry x="320" y="200" width="140" height="60" as="geometry"/>
        </mxCell>
        <mxCell id="F6H5KoVCKVOEPwMbqLrb-12" value="" style="endArrow=classic;html=1;exitX=0.5;exitY=1;exitDx=0;exitDy=0;entryX=0.5;entryY=0;entryDx=0;entryDy=0;" parent="1" source="F6H5KoVCKVOEPwMbqLrb-5" target="F6H5KoVCKVOEPwMbqLrb-6" edge="1">
          <mxGeometry width="50" height="50" relative="1" as="geometry">
            <mxPoint x="470" y="210" as="sourcePoint"/>
            <mxPoint x="520" y="160" as="targetPoint"/>
          </mxGeometry>
        </mxCell>
        <mxCell id="F6H5KoVCKVOEPwMbqLrb-13" value="Содержится в" style="text;html=1;resizable=0;points=[];align=center;verticalAlign=middle;labelBackgroundColor=#ffffff;" parent="F6H5KoVCKVOEPwMbqLrb-12" vertex="1" connectable="0">
          <mxGeometry x="0.31" y="4" relative="1" as="geometry">
            <mxPoint x="-4" y="-16" as="offset"/>
          </mxGeometry>
        </mxCell>
        <mxCell id="F6H5KoVCKVOEPwMbqLrb-14" value="" style="endArrow=classic;html=1;exitX=0.5;exitY=1;exitDx=0;exitDy=0;entryX=0.5;entryY=0;entryDx=0;entryDy=0;" parent="1" source="F6H5KoVCKVOEPwMbqLrb-6" target="F6H5KoVCKVOEPwMbqLrb-4" edge="1">
          <mxGeometry width="50" height="50" relative="1" as="geometry">
            <mxPoint x="300" y="330" as="sourcePoint"/>
            <mxPoint x="350" y="280" as="targetPoint"/>
          </mxGeometry>
        </mxCell>
        <mxCell id="F6H5KoVCKVOEPwMbqLrb-15" value="Попадает в" style="text;html=1;resizable=0;points=[];align=center;verticalAlign=middle;labelBackgroundColor=#ffffff;" parent="F6H5KoVCKVOEPwMbqLrb-14" vertex="1" connectable="0">
          <mxGeometry x="-0.5" y="3" relative="1" as="geometry">
            <mxPoint x="-0.5" y="11.5" as="offset"/>
          </mxGeometry>
        </mxCell>
        <mxCell id="F6H5KoVCKVOEPwMbqLrb-18" value="" style="endArrow=classic;html=1;exitX=1;exitY=0.5;exitDx=0;exitDy=0;entryX=0;entryY=0.5;entryDx=0;entryDy=0;" parent="1" source="F6H5KoVCKVOEPwMbqLrb-3" target="F6H5KoVCKVOEPwMbqLrb-6" edge="1">
          <mxGeometry width="50" height="50" relative="1" as="geometry">
            <mxPoint x="300" y="150" as="sourcePoint"/>
            <mxPoint x="350" y="100" as="targetPoint"/>
          </mxGeometry>
        </mxCell>
        <mxCell id="F6H5KoVCKVOEPwMbqLrb-19" value="Работает с" style="text;html=1;resizable=0;points=[];align=center;verticalAlign=middle;labelBackgroundColor=#ffffff;" parent="F6H5KoVCKVOEPwMbqLrb-18" vertex="1" connectable="0">
          <mxGeometry x="-0.2626" y="-1" relative="1" as="geometry">
            <mxPoint x="8" y="-1" as="offset"/>
          </mxGeometry>
        </mxCell>
        <mxCell id="F6H5KoVCKVOEPwMbqLrb-20" value="" style="endArrow=classic;html=1;exitX=1;exitY=0.5;exitDx=0;exitDy=0;entryX=0;entryY=0.5;entryDx=0;entryDy=0;" parent="1" source="F6H5KoVCKVOEPwMbqLrb-2" target="F6H5KoVCKVOEPwMbqLrb-5" edge="1">
          <mxGeometry width="50" height="50" relative="1" as="geometry">
            <mxPoint x="240" y="120" as="sourcePoint"/>
            <mxPoint x="290" y="70" as="targetPoint"/>
          </mxGeometry>
        </mxCell>
        <mxCell id="F6H5KoVCKVOEPwMbqLrb-21" value="Извлекает" style="text;html=1;resizable=0;points=[];align=center;verticalAlign=middle;labelBackgroundColor=#ffffff;" parent="F6H5KoVCKVOEPwMbqLrb-20" vertex="1" connectable="0">
          <mxGeometry x="-0.1749" y="-3" relative="1" as="geometry">
            <mxPoint x="12" y="-3" as="offset"/>
          </mxGeometry>
        </mxCell>
        <mxCell id="F6H5KoVCKVOEPwMbqLrb-23" value="" style="rounded=0;whiteSpace=wrap;html=1;dashed=1;" parent="1" vertex="1">
          <mxGeometry x="110" y="430" width="460" height="250" as="geometry"/>
        </mxCell>
        <mxCell id="F6H5KoVCKVOEPwMbqLrb-24" value="&lt;p style=&quot;margin: 0px ; margin-top: 4px ; text-align: center&quot;&gt;&lt;b&gt;База данных&lt;/b&gt;&lt;/p&gt;&lt;hr size=&quot;1&quot;&gt;&lt;div style=&quot;height: 2px&quot;&gt;&lt;/div&gt;" style="verticalAlign=top;align=left;overflow=fill;fontSize=12;fontFamily=Helvetica;html=1;" parent="1" vertex="1">
          <mxGeometry x="130" y="450" width="140" height="60" as="geometry"/>
        </mxCell>
        <mxCell id="F6H5KoVCKVOEPwMbqLrb-25" value="&lt;p style=&quot;margin: 0px ; margin-top: 4px ; text-align: center&quot;&gt;&lt;b&gt;Нейронная сеть&lt;/b&gt;&lt;/p&gt;&lt;hr size=&quot;1&quot;&gt;&lt;div style=&quot;height: 2px&quot;&gt;&lt;/div&gt;" style="verticalAlign=top;align=left;overflow=fill;fontSize=12;fontFamily=Helvetica;html=1;" parent="1" vertex="1">
          <mxGeometry x="390" y="450" width="140" height="60" as="geometry"/>
        </mxCell>
        <mxCell id="F6H5KoVCKVOEPwMbqLrb-26" value="&lt;p style=&quot;margin: 4px 0px 0px ; text-align: center ; font-size: 11px&quot;&gt;&lt;b&gt;&lt;font style=&quot;font-size: 11px&quot;&gt;Классификатор&lt;/font&gt;&lt;/b&gt;&lt;/p&gt;&lt;p style=&quot;margin: 4px 0px 0px ; text-align: center ; font-size: 11px&quot;&gt;&lt;b&gt;&lt;font style=&quot;font-size: 11px&quot;&gt;посторонних&amp;nbsp;&lt;/font&gt;&lt;/b&gt;&lt;b&gt;предметов&lt;/b&gt;&lt;/p&gt;&lt;hr size=&quot;1&quot; style=&quot;font-size: 11px&quot;&gt;&lt;div style=&quot;height: 2px ; font-size: 11px&quot;&gt;&lt;/div&gt;" style="verticalAlign=top;align=left;overflow=fill;fontSize=12;fontFamily=Helvetica;html=1;" parent="1" vertex="1">
          <mxGeometry x="390" y="590" width="140" height="60" as="geometry"/>
        </mxCell>
        <mxCell id="F6H5KoVCKVOEPwMbqLrb-27" value="&lt;p style=&quot;margin: 0px ; margin-top: 4px ; text-align: center&quot;&gt;&lt;b&gt;Информирование&lt;/b&gt;&lt;/p&gt;&lt;hr size=&quot;1&quot;&gt;&lt;div style=&quot;height: 2px&quot;&gt;&lt;/div&gt;" style="verticalAlign=top;align=left;overflow=fill;fontSize=12;fontFamily=Helvetica;html=1;" parent="1" vertex="1">
          <mxGeometry x="130" y="540" width="140" height="60" as="geometry"/>
        </mxCell>
        <mxCell id="jtSRnSGESg9QQzOYRtEx-2" value="" style="endArrow=classic;html=1;exitX=0;exitY=0.5;exitDx=0;exitDy=0;entryX=1;entryY=0.5;entryDx=0;entryDy=0;" parent="1" source="F6H5KoVCKVOEPwMbqLrb-25" target="F6H5KoVCKVOEPwMbqLrb-24" edge="1">
          <mxGeometry width="50" height="50" relative="1" as="geometry">
            <mxPoint x="40" y="600" as="sourcePoint"/>
            <mxPoint x="90" y="550" as="targetPoint"/>
          </mxGeometry>
        </mxCell>
        <mxCell id="jtSRnSGESg9QQzOYRtEx-11" value="Сохранение&lt;br&gt;результатов" style="text;html=1;resizable=0;points=[];align=center;verticalAlign=middle;labelBackgroundColor=#ffffff;" parent="jtSRnSGESg9QQzOYRtEx-2" vertex="1" connectable="0">
          <mxGeometry x="0.17" y="-2" relative="1" as="geometry">
            <mxPoint x="10" y="2" as="offset"/>
          </mxGeometry>
        </mxCell>
        <mxCell id="jtSRnSGESg9QQzOYRtEx-4" value="" style="endArrow=classic;html=1;entryX=1;entryY=0.5;entryDx=0;entryDy=0;exitX=0.5;exitY=1;exitDx=0;exitDy=0;" parent="1" source="F6H5KoVCKVOEPwMbqLrb-25" target="F6H5KoVCKVOEPwMbqLrb-27" edge="1">
          <mxGeometry width="50" height="50" relative="1" as="geometry">
            <mxPoint x="310" y="600" as="sourcePoint"/>
            <mxPoint x="360" y="550" as="targetPoint"/>
            <Array as="points">
              <mxPoint x="460" y="570"/>
              <mxPoint x="340" y="570"/>
            </Array>
          </mxGeometry>
        </mxCell>
        <mxCell id="jtSRnSGESg9QQzOYRtEx-6" value="" style="endArrow=classic;html=1;exitX=1;exitY=0.5;exitDx=0;exitDy=0;entryX=1;entryY=0.5;entryDx=0;entryDy=0;" parent="1" source="F6H5KoVCKVOEPwMbqLrb-6" target="F6H5KoVCKVOEPwMbqLrb-23" edge="1">
          <mxGeometry width="50" height="50" relative="1" as="geometry">
            <mxPoint x="570" y="290" as="sourcePoint"/>
            <mxPoint x="620" y="240" as="targetPoint"/>
            <Array as="points">
              <mxPoint x="710" y="230"/>
              <mxPoint x="710" y="555"/>
            </Array>
          </mxGeometry>
        </mxCell>
        <mxCell id="jtSRnSGESg9QQzOYRtEx-7" value="Видео-поток&lt;br&gt;анализирует ПО" style="text;html=1;resizable=0;points=[];align=center;verticalAlign=middle;labelBackgroundColor=#ffffff;" parent="jtSRnSGESg9QQzOYRtEx-6" vertex="1" connectable="0">
          <mxGeometry x="0.348" relative="1" as="geometry">
            <mxPoint as="offset"/>
          </mxGeometry>
        </mxCell>
        <mxCell id="jtSRnSGESg9QQzOYRtEx-8" value="" style="endArrow=classic;html=1;exitX=0;exitY=0.5;exitDx=0;exitDy=0;entryX=0;entryY=0.5;entryDx=0;entryDy=0;" parent="1" source="F6H5KoVCKVOEPwMbqLrb-23" target="F6H5KoVCKVOEPwMbqLrb-3" edge="1">
          <mxGeometry width="50" height="50" relative="1" as="geometry">
            <mxPoint x="80" y="550" as="sourcePoint"/>
            <mxPoint x="130" y="500" as="targetPoint"/>
            <Array as="points">
              <mxPoint x="20" y="555"/>
              <mxPoint x="20" y="310"/>
            </Array>
          </mxGeometry>
        </mxCell>
        <mxCell id="jtSRnSGESg9QQzOYRtEx-9" value="" style="endArrow=classic;html=1;exitX=0;exitY=0.5;exitDx=0;exitDy=0;entryX=0;entryY=0.5;entryDx=0;entryDy=0;" parent="1" source="F6H5KoVCKVOEPwMbqLrb-23" target="F6H5KoVCKVOEPwMbqLrb-2" edge="1">
          <mxGeometry width="50" height="50" relative="1" as="geometry">
            <mxPoint x="120" y="530" as="sourcePoint"/>
            <mxPoint x="30" y="130" as="targetPoint"/>
            <Array as="points">
              <mxPoint x="20" y="555"/>
              <mxPoint x="20" y="70"/>
            </Array>
          </mxGeometry>
        </mxCell>
        <mxCell id="jtSRnSGESg9QQzOYRtEx-10" value="ПО информирует" style="text;html=1;resizable=0;points=[];align=center;verticalAlign=middle;labelBackgroundColor=#ffffff;" parent="jtSRnSGESg9QQzOYRtEx-9" vertex="1" connectable="0">
          <mxGeometry x="-0.315" relative="1" as="geometry">
            <mxPoint as="offset"/>
          </mxGeometry>
        </mxCell>
        <mxCell id="jtSRnSGESg9QQzOYRtEx-14" value="" style="endArrow=classic;html=1;entryX=0.5;entryY=0;entryDx=0;entryDy=0;exitX=0.5;exitY=1;exitDx=0;exitDy=0;" parent="1" source="F6H5KoVCKVOEPwMbqLrb-25" target="F6H5KoVCKVOEPwMbqLrb-26" edge="1">
          <mxGeometry width="50" height="50" relative="1" as="geometry">
            <mxPoint x="470" y="520" as="sourcePoint"/>
            <mxPoint x="280" y="634" as="targetPoint"/>
            <Array as="points"/>
          </mxGeometry>
        </mxCell>
        <mxCell id="jtSRnSGESg9QQzOYRtEx-16" value="Найденный&lt;br&gt;посторонний&lt;br&gt;объект" style="text;html=1;resizable=0;points=[];align=center;verticalAlign=middle;labelBackgroundColor=#ffffff;" parent="jtSRnSGESg9QQzOYRtEx-14" vertex="1" connectable="0">
          <mxGeometry x="-0.505" relative="1" as="geometry">
            <mxPoint y="6" as="offset"/>
          </mxGeometry>
        </mxCell>
      </root>
    </mxGraphModel>
  </diagram>
</mxfile>
